<svg width="512" height="512" viewBox="0 0 512 512" fill="none" xmlns="http://www.w3.org/2000/svg">
<rect width="512" height="512" rx="128" fill="#22C55E"/>
<path d="M176 160h160c26.51 0 48 21.49 48 48v16c0 8.84-7.16 16-16 16s-16-7.16-16-16v-16c0-8.84-7.16-16-16-16H176c-8.84 0-16 7.16-16 16v96c0 8.84 7.16 16 16 16h160c8.84 0 16 7.16 16 16v16c0 26.51-21.49 48-48 48H176c-26.51 0-48-21.49-48-48V208c0-26.51 21.49-48 48-48z" fill="white"/>
<circle cx="256" cy="256" r="32" fill="white"/>
<path d="M240 224v-16c0-8.84 7.16-16 16-16s16 7.16 16 16v16h-32z" fill="white"/>
<path d="M240 288v16c0 8.84 7.16 16 16 16s16-7.16 16-16v-16h-32z" fill="white"/>
</svg>